<svg xmlns="http://www.w3.org/2000/svg" width="92.5" height="63.96" viewBox="0 0 92.5 63.96">
  <title>art-footer-logo</title>
  <g>
    <path d="M28.29,23c-1.11-6.61-4.24-9.86-9-9.86-4.48,0-6.06,2.89-6.06,2.89V0H6.24V43.39c3,2,6.71,2.4,10.13,2.4C26.14,45.79,30.13,34,28.29,23ZM16.4,40.16a4.47,4.47,0,0,1-3.18-.79V22.46c0-2.53,1.45-4.08,3.68-4.08,2.57,0,3.74,1.91,4.3,5.27C22,28.51,21.7,40.16,16.4,40.16Z" fill="#262626"/>
    <path d="M78.38,40.26c-1.94,0-2.75-.78-2.69-3.67V18.85h5.77l.25-5h-6V7.9H71.87c-1.09,3.5-2.48,5.82-5.92,6.5l-.23,4.45h2.94V37c0,3.92.33,8.78,8.11,8.78a15.73,15.73,0,0,0,3.6-.4l.28-5.56A6.59,6.59,0,0,1,78.38,40.26Z" fill="#262626"/>
    <path d="M59.63,40.88a11.74,11.74,0,0,1-1.33,0c-.65,0-.94-.26-.93-1.14V13.84H50.58v21c0,4.13-2.08,5.37-4.06,5.37-2.53,0-3.24-1.55-3.17-4.45V13.84H36.5v23.6c.2,5.2,2.89,8.35,8.09,8.35,3,0,5.53-1.3,6.72-4h.15c.5,3,2.35,4,4.58,4a15.74,15.74,0,0,0,3.9-.49l.23-4.44A4.87,4.87,0,0,1,59.63,40.88Z" fill="#262626"/>
    <path d="M89.24,39.8a2.77,2.77,0,0,1,3,2.4,2.84,2.84,0,0,1-2.92,3.59,3,3,0,1,1-.12-6Z" fill="#262626"/>
    <path d="M92.5,59.5A12.71,12.71,0,0,1,91.68,64L91,63.43a13.28,13.28,0,0,0,.64-4,13.81,13.81,0,0,0-.64-4l.66-.49A14.51,14.51,0,0,1,92.5,59.5Z" fill="#262626"/>
    <path d="M.81,54.89l.65.49a13.81,13.81,0,0,0-.64,4,13.28,13.28,0,0,0,.64,4L.82,64A12.71,12.71,0,0,1,0,59.5,14.25,14.25,0,0,1,.81,54.89Z" fill="#262626"/>
    <path d="M67.85,56.39V55.12h-.72a2,2,0,0,1-1.43,1.51l0,.81h.59a.13.13,0,0,1,.13.13v4.06c0,1,.15,1.94,1.88,1.94A4.47,4.47,0,0,0,69,63.5l.06-1a1.64,1.64,0,0,1-.42.06.81.81,0,0,1-.58-.18,1,1,0,0,1-.22-.81v-4a.13.13,0,0,1,.13-.13h1.31l0-.92H68A.13.13,0,0,1,67.85,56.39Z" fill="#262626"/>
    <path d="M72.71,56.39V55.12H72a2,2,0,0,1-1.44,1.51l0,.81h.59a.13.13,0,0,1,.13.13v4.06c0,1,.15,1.94,1.88,1.94a4.69,4.69,0,0,0,.77-.07l.05-1a1.52,1.52,0,0,1-.42.06.81.81,0,0,1-.58-.18,1,1,0,0,1-.22-.81v-4a.13.13,0,0,1,.13-.13h1.31l0-.92H72.84A.13.13,0,0,1,72.71,56.39Z" fill="#262626"/>
    <path d="M63.51,62.6h0a.4.4,0,0,1-.1-.31V56.52H62v4.59a1.44,1.44,0,0,1-.37,1.11,1.13,1.13,0,0,1-.77.28.91.91,0,0,1-.65-.21,1.22,1.22,0,0,1-.27-1V56.52H58.5v5.22a1.71,1.71,0,0,0,1.87,1.83,1.61,1.61,0,0,0,1.55-.86.12.12,0,0,1,.12-.08h0a.14.14,0,0,1,.14.11.9.9,0,0,0,1,.83,3.73,3.73,0,0,0,.84-.09l0-.8h-.32A.36.36,0,0,1,63.51,62.6Z" fill="#262626"/>
    <rect x="25.01" y="53.02" width="1.45" height="10.42" fill="#262626"/>
    <path d="M31.07,56.28c-.62,0-2.65.28-2.65,3.93,0,2.44.71,3.43,2.47,3.43s2.68-1.2,2.68-3.67C33.57,58.29,33.13,56.28,31.07,56.28ZM31,62.21c-1,0-1-1-1-2.28,0-1,.12-2.24,1-2.24s1,.88,1,2.51S31.69,62.21,31,62.21Z" fill="#262626"/>
    <path d="M83.54,57.12c-.05.05-.07.07-.1.05a0,0,0,0,1,0,0v-.64H82.12v6.95h1.45V59.22a2.37,2.37,0,0,1,.1-.68,2.22,2.22,0,0,1,.18-.38,1.65,1.65,0,0,1,1.45-.9,2.79,2.79,0,0,1,.84.13v-1a2.42,2.42,0,0,0-.84-.14A2.33,2.33,0,0,0,83.54,57.12Z" fill="#262626"/>
    <path d="M12,61.22a.15.15,0,0,1-.14.11h-.05l0,0,0-.06-1-4.52H9.36l-1,4.52a.09.09,0,0,1,0,.06l0,0H8.26a.14.14,0,0,1-.13-.11l-1-4.73H5.87l1.49,6.95H9l.83-4.12a.13.13,0,0,1,.13-.11h.17a.14.14,0,0,1,.13.11l.83,4.12h1.67l1.49-6.95H13Z" fill="#262626"/>
    <path d="M17.06,60.85h.1a3.13,3.13,0,0,0,2.25-.61,2.42,2.42,0,0,0,.66-1.86c0-1.36-.64-2.11-1.81-2.11-1.92,0-2.79,2-2.79,4.06,0,2.25.82,3.3,2.57,3.3a3.3,3.3,0,0,0,1.46-.34l.1-1.54a2.41,2.41,0,0,1-1.29.42c-.83,0-1.3-.18-1.37-1.1V61a.14.14,0,0,1,0-.1A.14.14,0,0,1,17.06,60.85Zm-.15-1.2v-.08h0c0-1.16.53-1.91,1.25-1.91.21,0,.72.09.72.87a1.2,1.2,0,0,1-.36.91,1.77,1.77,0,0,1-1.21.35H17A.13.13,0,0,1,16.91,59.65Z" fill="#262626"/>
    <path d="M43.46,60.85h.1a3.17,3.17,0,0,0,2.25-.61,2.42,2.42,0,0,0,.66-1.86c0-1.36-.64-2.11-1.81-2.11-1.93,0-2.79,2-2.79,4.06,0,2.25.82,3.3,2.57,3.3a3.45,3.45,0,0,0,1.45-.33L46,61.77a2.3,2.3,0,0,1-1.27.41c-.84,0-1.3-.18-1.38-1.1V61a.13.13,0,0,1,0-.1A.21.21,0,0,1,43.46,60.85Zm-.15-1.2v-.08h0c0-1.16.53-1.91,1.24-1.91.22,0,.72.09.72.87a1.17,1.17,0,0,1-.36.91,1.75,1.75,0,0,1-1.21.35h-.26A.12.12,0,0,1,43.31,59.65Z" fill="#262626"/>
    <path d="M77.15,60.85h.1a3.15,3.15,0,0,0,2.24-.61,2.39,2.39,0,0,0,.67-1.86c0-1.36-.64-2.11-1.81-2.11-1.93,0-2.79,2-2.79,4.06,0,2.25.82,3.3,2.57,3.3a3.49,3.49,0,0,0,1.45-.33l.09-1.54a2.31,2.31,0,0,1-1.28.41c-.83,0-1.29-.18-1.37-1.1V61a.14.14,0,0,1,.14-.14ZM77,59.65v-.08c0-1.16.53-1.91,1.24-1.91.22,0,.72.09.72.87a1.17,1.17,0,0,1-.36.91,1.75,1.75,0,0,1-1.21.35h-.27A.13.13,0,0,1,77,59.65Z" fill="#262626"/>
    <path d="M54.23,56.08a1.54,1.54,0,0,0-1.37.65,0,0,0,0,1,0,0s0,0,0,0V53H51.26v9.87a4.33,4.33,0,0,0,2.31.68,2.35,2.35,0,0,0,1.87-.87,5.53,5.53,0,0,0,.86-4.36C56,56.84,55.35,56.08,54.23,56.08Zm0,6.06a.8.8,0,0,1-.64.32,1.09,1.09,0,0,1-.77-.19s0,0,0,0v-4a1,1,0,0,1,.26-.75.88.88,0,0,1,.64-.25c.57,0,.9.39,1,1.26S54.87,61.36,54.21,62.14Z" fill="#262626"/>
    <path d="M37.87,61.1l-.11.26s-.07,0-.08,0l-.11-.25-1.2-4.62H34.88L36.4,62l.38,1.48h1.87L39,62l1.51-5.47H39.09Z" fill="#262626"/>
  </g>
</svg>
