<svg xmlns="http://www.w3.org/2000/svg" width="15.44" height="15.67" viewBox="0 0 15.44 15.67">
  <g id="圖層_2" data-name="圖層 2">
    <g id="內容文字包裝">
      <g>
        <rect x="0.46" y="0.46" width="14.52" height="14.75" rx="3.7" fill="none" stroke="#fff" stroke-miterlimit="10" stroke-width="0.92"/>
        <path d="M12,4.21h.76a.29.29,0,0,0,.32-.32V2.23a.3.3,0,0,0-.33-.33H11.29a2.94,2.94,0,0,0-2.7,2,2.67,2.67,0,0,0-.09.69c0,.59,0,1.18,0,1.78v.16H6.55a.29.29,0,0,0-.33.33V8.51a.3.3,0,0,0,.34.34H8.49V15h2.3V8.85h1.38a.29.29,0,0,0,.31-.23c.19-.56.37-1.12.55-1.69a.28.28,0,0,0-.28-.39h-2c0-.06,0-.11,0-.16,0-.45,0-.91,0-1.36a.6.6,0,0,1,.28-.54A1.68,1.68,0,0,1,12,4.21Z" fill="#fff" fill-rule="evenodd"/>
      </g>
    </g>
  </g>
</svg>
