<svg xmlns="http://www.w3.org/2000/svg" xmlns:xlink="http://www.w3.org/1999/xlink" width="17" height="17" viewBox="0 0 17 17">
  <defs>
    <clipPath id="clip-path">
      <polygon points="2049.82 -63.92 115.57 -66.94 115.57 -1154.95 2049.82 -1151.93 2049.82 -63.92" fill="none"/>
    </clipPath>
  </defs>
  <g id="內容文字包裝">
    <g>
      <path d="M12.06,16.33H4.94A4.16,4.16,0,0,1,.78,12.18V4.83A4.16,4.16,0,0,1,4.94.67h7.12a4.16,4.16,0,0,1,4.16,4.16v7.35A4.16,4.16,0,0,1,12.06,16.33ZM4.94,1.58A3.25,3.25,0,0,0,1.7,4.83v7.35a3.25,3.25,0,0,0,3.24,3.24h7.12a3.25,3.25,0,0,0,3.24-3.24V4.83a3.25,3.25,0,0,0-3.24-3.25Z"/>
      <path d="M8.5,12.32A3.83,3.83,0,1,1,12.27,8.5,3.8,3.8,0,0,1,8.5,12.32Zm0-6.73A2.91,2.91,0,1,0,11.35,8.5,2.89,2.89,0,0,0,8.5,5.59Z"/>
      <path d="M13.68,4.08a1,1,0,1,1-1.91,0,1,1,0,1,1,1.91,0Z"/>
    </g>
  </g>
  <g id="形象照">
    <g clip-path="url(#clip-path)">
      <image width="4305" height="2915" transform="translate(-156.43 -1557.92) scale(0.56)" xlink:href="info-icon-ig1.png"/>
    </g>
  </g>
</svg>
