<svg xmlns="http://www.w3.org/2000/svg" xmlns:xlink="http://www.w3.org/1999/xlink" width="17" height="17" viewBox="0 0 17 17">
  <defs>
    <clipPath id="clip-path">
      <polygon points="2049.38 -36.23 115.13 -39.26 115.13 -1127.27 2049.38 -1124.24 2049.38 -36.23" fill="none"/>
    </clipPath>
  </defs>
  <g id="內容文字包裝">
    <g>
      <g>
        <path d="M7,16.38C4.57,13.78,3.39,11,3.5,8.15A11.81,11.81,0,0,1,7,.55l.51.54A12,12,0,0,0,4.74,5.54c-1.21,3.56-.27,7,2.8,10.33Z" fill="#060000"/>
        <path d="M10.07,16.38l-.55-.51c3.07-3.29,4-6.77,2.8-10.33A12,12,0,0,0,9.54,1.09l.51-.54a11.81,11.81,0,0,1,3.51,7.6C13.67,11,12.49,13.78,10.07,16.38Z" fill="#060000"/>
      </g>
      <g>
        <path d="M8.24,5A10.42,10.42,0,0,1,2.83,3.52l.39-.63c1.43.87,5.32,2.61,10.62-.08l.34.67A13.07,13.07,0,0,1,8.24,5Z" fill="#060000"/>
        <path d="M3.2,14.36l-.34-.66c5.7-2.91,9.91-1,11.45,0l-.39.63C12.48,13.4,8.56,11.62,3.2,14.36Z" fill="#060000"/>
        <path d="M8.5,16.57A8.07,8.07,0,1,1,16.57,8.5,8.08,8.08,0,0,1,8.5,16.57Zm0-15.4A7.33,7.33,0,1,0,15.83,8.5,7.34,7.34,0,0,0,8.5,1.17Z" fill="#060000"/>
        <rect x="1.03" y="8.13" width="14.94" height="0.74" fill="#060000"/>
        <rect x="8.13" y="1.03" width="0.74" height="14.94" fill="#060000"/>
      </g>
    </g>
  </g>
  <g id="形象照">
    <g clip-path="url(#clip-path)">
      <image width="4305" height="2915" transform="translate(-156.87 -1530.24) scale(0.56)" xlink:href="info-icon-web1.png"/>
    </g>
  </g>
</svg>
