<svg xmlns="http://www.w3.org/2000/svg" xmlns:xlink="http://www.w3.org/1999/xlink" width="17" height="17" viewBox="0 0 17 17">
  <defs>
    <clipPath id="clip-path">
      <polygon points="2049.82 -10.48 115.57 -13.51 115.57 -1101.52 2049.82 -1098.49 2049.82 -10.48" fill="none"/>
    </clipPath>
  </defs>
  <g id="內容文字包裝">
    <g>
      <path d="M12.06,16.33H4.94A4.16,4.16,0,0,1,.78,12.17V4.82A4.16,4.16,0,0,1,4.94.67h7.12a4.16,4.16,0,0,1,4.16,4.15v7.35A4.16,4.16,0,0,1,12.06,16.33ZM4.94,1.58A3.25,3.25,0,0,0,1.7,4.82v7.35a3.25,3.25,0,0,0,3.24,3.25h7.12a3.25,3.25,0,0,0,3.24-3.25V4.82a3.25,3.25,0,0,0-3.24-3.24Z"/>
      <path d="M12.76,4.88h.76a.29.29,0,0,0,.32-.32V2.89a.29.29,0,0,0-.33-.32H12.07a2.94,2.94,0,0,0-2.7,2,3.19,3.19,0,0,0-.09.7c0,.59,0,1.18,0,1.77V7.2H7.33A.29.29,0,0,0,7,7.53V9.17a.3.3,0,0,0,.34.34H9.27v6.18h2.3V9.51H13a.28.28,0,0,0,.31-.22l.56-1.7a.29.29,0,0,0-.29-.39h-2V7.05c0-.46,0-.91,0-1.37a.6.6,0,0,1,.28-.53A1.53,1.53,0,0,1,12.76,4.88Z" fill-rule="evenodd"/>
    </g>
  </g>
  <g id="形象照">
    <g clip-path="url(#clip-path)">
      <image width="4305" height="2915" transform="translate(-156.43 -1504.49) scale(0.56)" xlink:href="info-icon-fb1.png"/>
    </g>
  </g>
</svg>
