<svg xmlns="http://www.w3.org/2000/svg" width="536" height="765" viewBox="0 0 536 765">
  <defs>
    <style>
      .cls-1 {
        fill: #f8ecdf;
      }
    </style>
  </defs>
  <title>store-bg</title>
  <g id="圖層_2" data-name="圖層 2">
    <g id="設計檔案">
      <rect class="cls-1" width="536" height="737"/>
      <path class="cls-1" d="M26.88,752.68c13.41,0,13.44,12.32,26.85,12.32s13.42-12.32,26.82-12.32S94,765,107.36,765s13.41-12.32,26.81-12.32S147.57,765,161,765s13.4-12.32,26.8-12.32S201.18,765,214.58,765s13.4-12.32,26.8-12.32S254.78,765,268.17,765s13.4-12.32,26.8-12.32S308.38,765,321.78,765s13.4-12.32,26.8-12.32S362,765,375.38,765s13.4-12.32,26.8-12.32S415.59,765,429,765s13.4-12.32,26.8-12.32S469.18,765,482.59,765s13.31-12.32,26.71-12.32S522,765,536,765V734.78H0V765C13,765,13.48,752.68,26.88,752.68Z"/>
    </g>
  </g>
</svg>
