<svg xmlns="http://www.w3.org/2000/svg" width="536" height="883" viewBox="0 0 536 883">
  <title>store-bg-long</title>
  <g id="圖層_2" data-name="圖層 2">
    <g id="設計檔案">
      <g>
        <rect width="536" height="854.36" fill="#f8ecdf"/>
        <path d="M26.88,870.84c13.41,0,13.44,12.16,26.85,12.16s13.42-12.16,26.82-12.16S94,883,107.36,883s13.41-12.16,26.81-12.16S147.57,883,161,883s13.4-12.16,26.8-12.16S201.18,883,214.58,883s13.4-12.16,26.8-12.16S254.78,883,268.18,883s13.4-12.16,26.8-12.16S308.38,883,321.78,883s13.4-12.16,26.8-12.16S362,883,375.38,883s13.4-12.16,26.8-12.16S415.58,883,429,883s13.4-12.16,26.8-12.16S469.18,883,482.58,883s13.31-12.16,26.71-12.16S522,883,536,883V853.15H0V883C13,883,13.47,870.84,26.88,870.84Z" fill="#f8ecdf"/>
      </g>
    </g>
  </g>
</svg>
